<?xml version="1.0" encoding="utf-8"?>
<!-- Generator: Adobe Illustrator 20.1.0, SVG Export Plug-In . SVG Version: 6.00 Build 0)  -->
<svg version="1.1" id="Layer_1" xmlns="http://www.w3.org/2000/svg" xmlns:xlink="http://www.w3.org/1999/xlink" x="0px" y="0px"
	 width="275.7" height="94.6" viewBox="0 0 275.7 94.6" style="enable-background:new 0 0 275.7 94.6;" xml:space="preserve">
<style type="text/css">
	.st0{fill:#FFC21E;}
	.st1{fill:#FCB91C;}
	.st2{fill:#DF9027;}
	.st3{fill:#AC722A;}
	.st4{fill:#FFC741;}
</style>
<g>
	<path class="st0" d="M113.4,59V37.6c0-10.9,5.4-17.5,24.8-17.5c19.3,0,24.8,6.5,24.8,17.4v21.3c0,10.9-5.4,17.6-24.8,17.6
		S113.4,69.9,113.4,59z M153.5,57.8V38.6c0-8.3-3.3-11-15.3-11c-12.1,0-15.4,2.9-15.4,11.2V58c0,8.2,3.3,11,15.4,11
		C150.2,68.9,153.5,66,153.5,57.8z"/>
	<path class="st0" d="M170.2,68.1l4.1-0.1V28.5l-4.1-0.1v-7.1h26.2c13.6,0,18.8,3.3,18.8,10.9v6.4c0,6-3.7,10.3-11.6,10.8
		c6.6,0.6,11.2,1.7,11.8,7.9l1,10.7l4.4,0.2v7h-12.6c-0.5-0.5-0.9-0.9-1-2.6l-1-12.8c-0.4-5.6-4.4-7.1-13.9-7.1h-8.6V68l4,0.1v7.1
		h-17.5V68.1z M194.6,45.6c8.9,0,11.4-1.9,11.4-6.6v-4.3c0-4.4-1.7-6.2-11.4-6.2h-10.9v17.1H194.6z"/>
	<path class="st0" d="M226.1,59V37.6c0-10.9,5.4-17.5,24.8-17.5c19.3,0,24.8,6.5,24.8,17.4v21.3c0,10.9-5.4,17.6-24.8,17.6
		S226.1,69.9,226.1,59z M266.2,57.8V38.6c0-8.3-3.3-11-15.3-11c-12.1,0-15.4,2.9-15.4,11.2V58c0,8.2,3.3,11,15.4,11
		C262.9,68.9,266.2,66,266.2,57.8z"/>
</g>
<g>
	<g>
		<path class="st1" d="M20.6,58.6l38.6-37.8c4.1-4.1,10.8-4,14.8,0.1L56.5,3.1C52.5-1,45.8-1.1,41.7,3L3.1,40.8
			C-1,44.9-1.1,51.5,3,55.6l17.5,17.9C16.4,69.3,16.5,62.7,20.6,58.6z"/>
	</g>
	<g>
		<path class="st2" d="M35.3,73.6l38.6-37.8C78,31.7,78.1,25.1,74,21l17.5,17.9c4.1,4.1,4,10.8-0.1,14.8L52.8,91.5
			c-4.1,4.1-10.8,4-14.8-0.1L20.5,73.5C24.5,77.6,31.2,77.7,35.3,73.6z"/>
	</g>
	<g>
		<path class="st3" d="M91.5,38.8L74,21c4.1,4.1,4,10.8-0.1,14.8l-1.1,1L83,47.2c4.1,4.1,4,10.8-0.1,14.8l8.6-8.4
			C95.5,49.6,95.6,43,91.5,38.8z"/>
	</g>
	<g>
		<path class="st4" d="M48,11.5l10.2,10.4l1.1-1.1c4.1-4.1,10.8-4,14.8,0.1L56.5,3.1C52.5-1,45.8-1.1,41.7,3l-1.1,1L48,11.5z"/>
	</g>
</g>
</svg>
