<?xml version="1.0" encoding="utf-8"?>
<!-- Generator: Adobe Illustrator 20.1.0, SVG Export Plug-In . SVG Version: 6.00 Build 0)  -->
<svg version="1.1" id="Ebene_1" xmlns="http://www.w3.org/2000/svg" xmlns:xlink="http://www.w3.org/1999/xlink" x="0px" y="0px"
	 width="511.9" height="110.1" viewBox="0 0 511.9 110.1" style="enable-background:new 0 0 511.9 110.1;" xml:space="preserve">
<style type="text/css">
	.st0{fill:#189EFF;}
</style>
<title>sw-logo-blue</title>
<g id="_Gruppe_">
	<g id="_Gruppe_2">
		<path id="_Pfad_" class="st0" d="M150.2,55.5c-4.7-2-8.5-3.9-8.5-6.9c0-2.1,2.4-4.2,6.5-4.2c3.5,0.1,6.9,0.8,10.1,2.3
			c1,0.6,2.4,0.2,3-0.8c0,0,0-0.1,0.1-0.1l1.6-3.3c0.6-1.2,0.1-2.7-1-3.5c-4.2-2.4-8.9-3.6-13.7-3.5c-11.4,0-16.1,6.9-16.1,12.8
			c0,7.7,6,11.6,13.2,14.9c6.5,2.9,10.1,5,10.1,8.1c0,2.7-2.2,4.6-6.2,4.6c-5.6,0-8.9-1.9-11.7-3.5c-0.9-0.7-2.2-0.5-2.9,0.4
			c0,0.1-0.1,0.1-0.1,0.2l-2.1,4.4c-0.4,0.9,0,2,0.8,2.4c4.6,3.1,9.9,4.8,15.5,4.8c10.5,0,16.8-6.4,16.8-13.7
			C165.3,62.3,158.8,59.2,150.2,55.5z"/>
	</g>
	<g id="_Gruppe_3">
		<path id="_Pfad_2" class="st0" d="M87.8,98c-4.8-3.6-11.8-6.3-19.3-9.2c-8.9-3.4-19-7.3-26.5-13.4C33.4,68.6,29.2,60,29.2,49.1
			C29.1,39.7,33.4,30.7,41,25c8.6-6.8,21.6-10.3,37.6-10.3c4.2,0,8.4,0.3,12.6,0.8c0.4,0.1,0.8-0.3,0.9-0.7c0-0.3-0.1-0.5-0.3-0.7
			C69.2-6.2,34.4-4.4,14.1,18.2s-18.5,57.4,4.1,77.7C28.3,105,41.4,110,55,110c11.8,0.1,23.3-3.7,32.8-10.7c0.2-0.1,0.3-0.4,0.3-0.6
			C88.1,98.4,88,98.2,87.8,98z"/>
		<path id="_Pfad_3" class="st0" d="M109.8,49.9c0-0.2-0.1-0.4-0.3-0.5C98.1,39.9,88.8,36,77.5,36c-6,0-10.6,1.2-13.7,3.6
			c-2.6,2-4.1,5-4.1,8.3c0,9.5,11.6,13.8,24.9,18.8c6.9,2.6,14,5.2,20.6,8.9c0.1,0.1,0.2,0.1,0.4,0.1c0.1,0,0.2,0,0.3-0.1
			c0.2-0.1,0.4-0.2,0.5-0.5c2.5-6.4,3.8-13.2,3.8-20.1C110.1,53.4,110,51.7,109.8,49.9z"/>
	</g>
	<path id="_Zusammengesetzter_Pfad_" class="st0" d="M426.1,84.3c1.3-0.1,2.4-1.2,2.4-2.5V57.9c0-12.2-1.5-21.7-17.2-21.7
		c-5.7,0-11.4,0.9-16.9,2.8c-1.2,0.3-1.9,1.5-1.6,2.7c0,0.1,0,0.1,0.1,0.2l1,4c0.3,1.4,1.3,2.3,2.8,2c4.4-1.4,9-2.2,13.7-2.3
		c6.2,0,8.1,3.5,7.9,11.3c-3.2-0.9-6.5-1.4-9.9-1.5c-12.6,0-19.6,6.8-19.6,15.8c0,10.2,6.5,13.7,15.7,13.7c7.5,0,15.3-0.1,18.5-0.3
		L426.1,84.3z M418,75.6c-1.5,2.4-6.8,1.8-11.4,1.7c-5.1-0.1-7.6-1.9-7.6-6.3c0-5.1,4.3-8.1,10.1-8.1c3.1-0.1,6.1,0.5,8.9,1.7
		L418,75.6L418,75.6L418,75.6z"/>
	<path id="_Zusammengesetzter_Pfad_2" class="st0" d="M506.3,35.7c3.1,0,5.6-2.5,5.5-5.6s-2.5-5.6-5.6-5.5c-3.1,0-5.5,2.5-5.6,5.6
		C500.7,33.2,503.2,35.7,506.3,35.7L506.3,35.7z M506.3,25.4c2.6,0,4.8,2.1,4.8,4.7c0,2.6-2.1,4.8-4.7,4.8s-4.8-2.1-4.8-4.7
		c0,0,0,0,0,0C501.6,27.5,503.7,25.4,506.3,25.4z"/>
	<path id="_Zusammengesetzter_Pfad_3" class="st0" d="M504.4,32.9h0.5c0.1,0,0.1-0.1,0.1-0.2v-2h1.2l1,2.1c0,0.1,0.1,0.1,0.2,0.1
		h0.6c0.1,0,0.2-0.1,0.2-0.1c0,0,0-0.1,0-0.1l-1.1-2c0.8-0.2,1.3-1,1.2-1.8c0-1-0.8-1.7-1.7-1.7c0,0,0,0,0,0h-2.2
		c-0.1,0-0.1,0.1-0.1,0.1v5.3C504.3,32.8,504.3,32.9,504.4,32.9C504.4,32.9,504.4,32.9,504.4,32.9z M505.1,28.1h1.4c0.6,0,1,0.4,1,1
		s-0.4,1-1,1h-1.4V28.1z"/>
	<path id="_Pfad_4" class="st0" d="M196.6,35.7c-4.9,0.1-9.7,1.8-13.6,4.9v-21c-0.1-1.2-1-2.2-2.2-2.2H175c-1.2,0-2.2,1-2.2,2.2v63
		c0,1.2,1,2.2,2.2,2.3h5.6c1.2,0.1,2.3-0.7,2.4-1.9c0-0.1,0-0.2,0-0.3V52.2c2.6-4.3,7.3-6.9,12.3-6.8c6.1,0,9.4,4.6,9.4,12.3v24.9
		c0,1.2,1,2.2,2.2,2.2h5.7c1.2,0,2.2-1,2.2-2.2V57.9C214.8,45.1,209.9,35.7,196.6,35.7z"/>
	<path id="_Zusammengesetzter_Pfad_4" class="st0" d="M315.8,58.4c-0.6-16-7.3-22.7-22.7-22.7c-5.9,0.1-11.8,1.1-17.5,2.8
		c-1.6,0.7-2.8,1.5-2.8,2.6v59.8c0,1.2,1,2.2,2.2,2.2h4.7c1.2,0.1,2.3-0.7,2.4-1.9c0-0.1,0-0.2,0-0.3V84c4.9,0.7,9.9,1,14.8,0.8
		c10.9-0.3,18.2-8.2,18.8-21.6c0.1-2,0.1-4,0-6L315.8,58.4L315.8,58.4z M306,63.2c-0.2,9.1-2.8,13.1-10.5,13.5
		c-3.8,0.2-12.7-0.8-12.7-0.8c-0.3,0-0.6-0.3-0.6-0.6V46.5c0-0.3,0.2-0.5,0.5-0.5c3.4-0.8,6.9-1.3,10.4-1.3
		c9.3,0,12.5,1.4,12.9,13.1C306,59.3,306,61.4,306,63.2z"/>
	<path id="_Pfad_5" class="st0" d="M383.2,36.7h-4.3c-1.2,0-3,0-3.6,1.4l-7.5,27.1h-0.2L355,36.8c-0.4-0.8-1.2-1.2-2-1.1h-0.7
		c-0.8,0-1.5,0.4-1.9,1.1l-12.8,28.3h-0.2l-7.7-27c-0.3-0.9-1.1-1.4-2-1.4h-6.1c-0.9-0.1-1.8,0.5-1.9,1.4c-0.1,0.4,0,0.9,0.3,1.2
		l13.7,44.3c0.3,0.8,1.1,1.3,1.9,1.2h0.6c0.8,0.1,1.5-0.4,1.8-1.1l14.5-32h0.2l14.3,32c0.4,0.7,1.2,1.2,2,1.1h0.4
		c0.9,0.1,1.8-0.4,2.1-1.2L385,39.4C385.7,37.9,384.8,36.7,383.2,36.7z"/>
	<path id="_Pfad_6" class="st0" d="M458.2,36.2c-0.3,0-0.5,0-0.7,0c-0.4,0-0.8,0-1.2,0c-2.4,0-4.8,0.1-7,0.2l0,0
		c-4.2,0.2-6.7,0.5-8.5,0.7c0,0-1.1,0.1-2.5,0.3c-0.8,0.1-1.5,0.4-1.9,1c-0.3,0.3-0.4,0.7-0.4,1.1v43.1c0,1.2,1,2.2,2.2,2.2h4.7
		c1.9,0,3.3-0.2,3.3-2.2V53.5l0,0v-6.7c0.1-0.3,0.4-0.6,0.7-0.8c1.1-0.7,3.9-1.2,9.5-1.2h1.3c1.3,0.1,2.7,0.4,3.9,0.9
		c1,0.5,2.2,0.2,2.7-0.8c0.1-0.1,0.1-0.2,0.1-0.3l2.4-4C468.3,37.5,462.7,36.2,458.2,36.2z"/>
	<path id="_Zusammengesetzter_Pfad_5" class="st0" d="M490.4,35.7C476.3,35.7,467,47,467,60.2c0,13.4,9.3,24.6,23.5,24.6
		c7.8,0,14-2.8,17.4-5.8c1.4-1.2,1-2.1,0.2-3.2l-2.8-4.3c-0.8-1.2-1.7-0.9-2.8-0.2c-3.3,2.6-7.3,4-11.5,4c-8.2,0-13.9-6.5-14-12.8
		h32.5c1.1,0,2-0.9,2.1-2c0.1-0.8,0.2-2.4,0.2-3.3C511.9,44.7,502.6,35.7,490.4,35.7z M477.6,55c0.7-5.9,5.2-10.7,12.6-10.7
		c6.9,0,11.4,5,11.6,10.7H477.6z"/>
	<path id="_Zusammengesetzter_Pfad_6" class="st0" d="M264.6,50.2c-1-2.9-2.5-5.5-4.5-7.8c-1.9-2.1-4.2-3.9-6.9-5
		c-6.1-2.3-12.9-2.3-19,0c-2.6,1.2-5,2.9-6.9,5c-2,2.3-3.5,4.9-4.5,7.8c-1.1,3.2-1.6,6.6-1.6,10c-0.1,3.4,0.5,6.9,1.6,10.1
		c1,2.8,2.5,5.5,4.5,7.7c1.9,2.1,4.2,3.9,6.9,5c6.1,2.3,12.9,2.3,19,0c2.6-1.2,5-2.9,6.8-5c2-2.3,3.5-4.9,4.5-7.7
		c1.1-3.2,1.6-6.7,1.6-10.1C266.3,56.9,265.7,53.5,264.6,50.2z M243.5,76.7c-8.5,0-12.8-7.2-12.8-16.1s4.2-16.1,12.8-16.1
		s12.8,7.2,12.8,16.1S252,76.7,243.5,76.7L243.5,76.7z"/>
</g>
</svg>
