<?xml version="1.0" encoding="utf-8"?>
<!-- Generator: Adobe Illustrator 20.1.0, SVG Export Plug-In . SVG Version: 6.00 Build 0)  -->
<svg version="1.1" id="Слой_1" xmlns="http://www.w3.org/2000/svg" xmlns:xlink="http://www.w3.org/1999/xlink" x="0px" y="0px"
	 width="512" height="117" viewBox="0 0 512 117" style="enable-background:new 0 0 512 117;" xml:space="preserve">
<style type="text/css">
	.st0{fill:#00749A;}
	.st1{fill:#464342;}
</style>
<g>
	<path class="st0" d="M296.9,45.7h-20.2v2.1c6.3,0,7.3,1.4,7.3,9.3v14.4c0,8-1,9.5-7.3,9.5c-4.8-0.7-8.1-3.3-12.6-8.2l-5.2-5.6
		c7-1.2,10.7-5.6,10.7-10.6c0-6.2-5.3-10.9-15.2-10.9h-19.8v2.1c6.3,0,7.3,1.4,7.3,9.3v14.4c0,8-1,9.5-7.3,9.5v2.1h22.4v-2.1
		c-6.3,0-7.3-1.5-7.3-9.5v-4.1h1.9l12.5,15.6h32.8c16.1,0,23.1-8.6,23.1-18.8C320,54.2,313.1,45.7,296.9,45.7L296.9,45.7L296.9,45.7
		z M249.8,64.1v-15h4.6c5.1,0,7.3,3.5,7.3,7.5c0,3.9-2.3,7.4-7.3,7.4L249.8,64.1L249.8,64.1L249.8,64.1z M297.3,79.7h-0.8
		c-4.1,0-4.6-1-4.6-6.2V49.1h5.4c11.7,0,13.8,8.6,13.8,15.2C311.1,71.2,309,79.7,297.3,79.7L297.3,79.7L297.3,79.7z M172,68.2
		l7.8-23c2.3-6.6,1.2-8.6-6-8.6v-2.3h21.2v2.3c-7.1,0-8.8,1.7-11.6,9.9l-12.8,38.5H169l-11.5-35.2l-11.7,35.2h-1.5l-12.5-38.5
		c-2.7-8.2-4.5-9.9-11-9.9v-2.3h25v2.3c-6.6,0-8.4,1.6-6.1,8.6l7.5,23l11.4-33.8h2.1L172,68.2L172,68.2z M210.3,84.7
		c-12.4,0-22.5-9.1-22.5-20.3c0-11,10.1-20.2,22.5-20.2c12.4,0,22.5,9.1,22.5,20.2C232.8,75.6,222.6,84.7,210.3,84.7L210.3,84.7
		L210.3,84.7z M210.3,47.8c-10.4,0-14,9.3-14,16.7c0,7.4,3.6,16.7,14,16.7c10.5,0,14.1-9.2,14.1-16.7
		C224.3,57.1,220.7,47.8,210.3,47.8L210.3,47.8L210.3,47.8z"/>
	<path class="st1" d="M347.8,81v2.3h-25.8V81c7.5,0,8.9-1.9,8.9-13.2v-18c0-11.3-1.4-13.1-8.9-13.1v-2.3h23.3c11.6,0,18,6,18,14
		c0,7.8-6.4,13.8-18,13.8h-6.4v5.5C338.9,79.1,340.3,81,347.8,81L347.8,81L347.8,81z M345.4,38.5h-6.4v19.6h6.4
		c6.3,0,9.2-4.4,9.2-9.7C354.6,43,351.7,38.5,345.4,38.5L345.4,38.5L345.4,38.5z M440.7,72.6l-0.6,2c-1,3.7-2.3,5.1-10.2,5.1h-1.6
		c-5.9,0-6.9-1.4-6.9-9.3v-5.2c8.8,0,9.5,0.8,9.5,6.6h2.1V55.1h-2.1c0,5.9-0.7,6.6-9.5,6.6V49.1h6.2c8,0,9.2,1.4,10.2,5.1l0.6,2.1
		h1.8l-0.8-10.6h-33.1v2.1c6.3,0,7.3,1.4,7.3,9.3v14.4c0,7.3-0.9,9.2-5.8,9.4c-4.7-0.7-8-3.3-12.4-8.2l-5.2-5.6
		c7-1.2,10.7-5.6,10.7-10.6c0-6.2-5.3-10.9-15.2-10.9H366v2.1c6.3,0,7.3,1.4,7.3,9.3v14.4c0,8-1,9.5-7.3,9.5v2.1h22.4v-2.1
		c-6.3,0-7.3-1.5-7.3-9.5v-4.1h1.9l12.5,15.6h46.3l0.7-10.6L440.7,72.6L440.7,72.6L440.7,72.6z M381.1,64.1v-15h4.6
		c5.1,0,7.3,3.5,7.3,7.5c0,3.9-2.3,7.4-7.3,7.4L381.1,64.1L381.1,64.1L381.1,64.1z M463.6,84.7c-4.5,0-8.4-2.4-10.1-3.8
		c-0.6,0.6-1.6,2.3-1.8,3.8h-2.1V69.1h2.3c0.9,7.4,6.1,11.8,12.7,11.8c3.6,0,6.5-2,6.5-5.4c0-2.9-2.6-5.2-7.2-7.3l-6.4-3
		c-4.5-2.1-7.9-5.9-7.9-10.8c0-5.4,5.1-10,12-10c3.7,0,6.9,1.4,8.8,2.9c0.6-0.5,1.1-1.7,1.5-3h2.1v13.3h-2.4
		c-0.8-5.3-3.7-9.7-9.7-9.7c-3.2,0-6.1,1.8-6.1,4.6c0,2.9,2.4,4.5,7.8,7l6.2,3c5.4,2.6,7.5,6.8,7.5,10.1
		C477.3,79.7,471.1,84.7,463.6,84.7L463.6,84.7L463.6,84.7z M498.3,84.7c-4.5,0-8.4-2.4-10.1-3.8c-0.6,0.6-1.6,2.3-1.8,3.8h-2.1
		V69.1h2.3c0.9,7.4,6.1,11.8,12.7,11.8c3.6,0,6.5-2,6.5-5.4c0-2.9-2.6-5.2-7.2-7.3l-6.4-3c-4.5-2.1-7.9-5.9-7.9-10.8
		c0-5.4,5.1-10,12-10c3.7,0,6.9,1.4,8.8,2.9c0.6-0.5,1.1-1.7,1.5-3h2.1v13.3h-2.4c-0.8-5.3-3.7-9.7-9.7-9.7c-3.2,0-6.1,1.8-6.1,4.6
		c0,2.9,2.4,4.5,7.8,7l6.2,3c5.4,2.6,7.5,6.8,7.5,10.1C512,79.7,505.8,84.7,498.3,84.7L498.3,84.7L498.3,84.7z"/>
	<g>
		<path class="st1" d="M8.3,58.1c0,19.7,11.5,36.8,28.1,44.8L12.6,37.8C9.8,44,8.3,50.9,8.3,58.1L8.3,58.1L8.3,58.1z M91.7,55.6
			c0-6.2-2.2-10.4-4.1-13.7c-2.5-4.1-4.9-7.6-4.9-11.7c0-4.6,3.5-8.8,8.4-8.8c0.2,0,0.4,0,0.6,0C82.9,13.2,71.1,8.3,58.1,8.3
			c-17.4,0-32.7,8.9-41.6,22.5c1.2,0,2.3,0.1,3.2,0.1c5.2,0,13.3-0.6,13.3-0.6c2.7-0.2,3,3.8,0.3,4.1c0,0-2.7,0.3-5.7,0.5l18.1,54
			L56.6,56l-7.8-21.3c-2.7-0.2-5.2-0.5-5.2-0.5c-2.7-0.2-2.4-4.3,0.3-4.1c0,0,8.2,0.6,13.1,0.6c5.2,0,13.3-0.6,13.3-0.6
			c2.7-0.2,3,3.8,0.3,4.1c0,0-2.7,0.3-5.7,0.5l18,53.6l5-16.6C90.1,64.8,91.7,59.8,91.7,55.6L91.7,55.6L91.7,55.6z M59,62.4
			l-15,43.4c4.5,1.3,9.2,2,14.1,2c5.8,0,11.4-1,16.5-2.8c-0.1-0.2-0.3-0.4-0.4-0.7L59,62.4L59,62.4z M101.8,34.2
			c0.2,1.6,0.3,3.3,0.3,5.1c0,5.1-0.9,10.7-3.8,17.8l-15.2,44c14.8-8.6,24.8-24.7,24.8-43.1C107.9,49.4,105.7,41.3,101.8,34.2
			L101.8,34.2L101.8,34.2z M58.1,0C26.1,0,0,26.1,0,58.1c0,32,26.1,58.1,58.1,58.1c32,0,58.1-26.1,58.1-58.1
			C116.2,26.1,90.1,0,58.1,0L58.1,0L58.1,0z M58.1,113.5c-30.6,0-55.4-24.9-55.4-55.4c0-30.6,24.9-55.4,55.4-55.4
			c30.6,0,55.4,24.9,55.4,55.4C113.5,88.6,88.6,113.5,58.1,113.5L58.1,113.5L58.1,113.5z"/>
	</g>
</g>
</svg>
